<?xml version="1.0" standalone="no"?>
<!DOCTYPE svg PUBLIC "-//W3C//DTD SVG 20010904//EN"
 "http://www.w3.org/TR/2001/REC-SVG-20010904/DTD/svg10.dtd">
<svg version="1.0" xmlns="http://www.w3.org/2000/svg"
 width="585.000000pt" height="585.000000pt" viewBox="0 0 585.000000 585.000000"
 preserveAspectRatio="xMidYMid meet">
<metadata>
Created by potrace 1.14, written by Peter Selinger 2001-2017
</metadata>
<g transform="translate(0.000000,585.000000) scale(0.100000,-0.100000)"
fill="#000000" stroke="none">
<path d="M250 4142 c0 -6 -8 -9 -17 -8 -10 2 -36 -8 -58 -22 -98 -61 -143
-143 -143 -257 0 -46 4 -75 11 -75 6 0 8 -3 4 -6 -8 -9 31 -84 57 -110 35 -34
96 -77 96 -68 0 5 4 4 8 -3 4 -7 22 -13 40 -15 18 -1 32 -5 32 -9 0 -3 18 -3
40 1 24 4 43 3 46 -2 4 -6 9 -6 14 2 4 6 13 12 21 13 27 4 79 30 79 39 0 5 4
7 8 4 13 -8 72 63 98 117 31 68 31 170 -2 237 -13 26 -28 51 -34 55 -6 3 -7
12 -4 18 4 7 4 9 0 5 -5 -4 -21 6 -36 22 -15 16 -31 26 -34 23 -3 -4 -6 -2 -6
4 0 6 -10 14 -22 18 -13 4 -30 9 -38 12 -33 11 -160 15 -160 5z"/>
<path d="M2064 4050 l-29 -5 -1 -230 c0 -127 3 -238 8 -247 5 -10 5 -18 1 -18
-12 0 -10 -194 2 -202 6 -5 6 -8 -2 -8 -8 0 -10 -15 -8 -46 l4 -47 -22 19
c-12 11 -29 27 -38 37 -9 9 -19 17 -23 17 -4 0 -16 9 -28 20 -12 11 -28 20
-35 20 -7 0 -13 4 -13 8 0 5 -16 14 -35 22 -19 8 -35 18 -35 22 0 5 -5 6 -10
3 -6 -4 -17 -1 -25 5 -8 7 -15 10 -15 6 0 -4 -12 0 -27 7 -16 8 -34 12 -41 10
-7 -3 -18 -1 -25 4 -25 19 -286 4 -330 -19 -9 -5 -22 -6 -27 -3 -6 3 -10 1
-10 -4 0 -6 -3 -10 -7 -9 -5 1 -21 -5 -38 -12 -16 -7 -33 -13 -37 -12 -5 1 -8
-3 -8 -8 0 -6 -5 -10 -11 -10 -34 0 -239 -180 -239 -210 0 -6 -5 -10 -11 -10
-5 0 -7 -4 -4 -10 3 -5 2 -10 -3 -10 -12 0 -72 -112 -72 -134 0 -10 -4 -15 -8
-12 -4 2 -8 -3 -9 -12 -1 -9 -9 -42 -19 -72 -9 -30 -17 -69 -18 -85 -1 -17 -5
-35 -8 -40 -3 -6 -4 -19 -2 -30 1 -11 -2 -23 -9 -27 -8 -5 -8 -8 -1 -8 11 0
10 -52 -1 -71 -4 -5 -2 -9 2 -9 5 0 9 -17 10 -37 1 -36 9 -105 14 -110 1 -2 2
-11 3 -20 1 -10 8 -36 16 -58 8 -22 15 -42 15 -45 1 -3 9 -22 18 -44 9 -21 17
-42 17 -47 0 -5 3 -9 8 -9 4 0 15 -17 25 -38 28 -58 159 -202 184 -202 7 0 13
-5 13 -10 0 -6 11 -15 25 -20 14 -5 25 -14 25 -20 0 -5 5 -10 12 -10 6 0 35
-12 64 -26 29 -14 58 -27 66 -28 7 -1 32 -8 55 -15 24 -6 61 -13 82 -14 22 -2
43 -6 47 -9 3 -4 17 -3 30 2 13 5 24 6 24 1 0 -5 15 -6 33 -2 17 4 39 6 47 6
8 -1 21 3 28 8 8 6 12 5 12 -3 0 -10 3 -10 15 0 8 7 15 9 15 5 0 -4 7 -2 15 5
8 7 15 9 15 5 0 -4 7 -2 15 5 8 7 15 9 15 5 0 -4 7 -2 15 5 8 6 19 9 25 5 5
-3 10 -1 10 4 0 6 5 11 11 11 7 0 28 10 48 22 20 13 38 23 41 23 6 0 26 16 75
62 20 18 39 33 44 33 4 0 7 -37 7 -82 l-1 -83 193 -1 c137 -1 192 2 193 10 0
6 2 23 3 39 1 15 -1 27 -4 27 -3 0 -3 52 0 116 3 66 1 119 -5 125 -5 6 -5 9 1
9 5 0 10 9 10 20 0 11 -4 20 -7 20 -4 0 -3 15 2 32 5 20 5 34 0 36 -5 2 -6 15
-1 33 6 20 5 29 -3 29 -8 0 -8 3 -2 8 11 7 16 52 6 52 -3 0 -4 52 -1 116 3 66
1 119 -4 125 -6 6 -6 9 0 9 5 0 10 9 10 20 0 11 -4 20 -7 20 -4 0 -3 15 2 32
5 20 5 34 0 36 -5 2 -6 15 -1 33 6 20 5 29 -3 29 -8 0 -8 3 -2 8 11 7 16 52 6
52 -3 0 -4 52 -1 116 3 66 1 119 -4 125 -6 6 -6 9 0 9 5 0 10 9 10 20 0 11 -4
20 -7 20 -4 0 -3 15 2 32 5 20 5 34 0 36 -5 2 -6 15 -1 33 6 20 5 29 -3 29 -8
0 -8 3 -2 8 11 7 16 52 6 52 -3 0 -4 52 -1 116 3 66 1 119 -4 125 -6 6 -6 9 0
9 5 0 10 9 10 20 0 11 -4 20 -7 20 -4 0 -3 15 2 32 5 20 5 34 0 36 -5 2 -6 15
-1 33 6 20 5 29 -3 29 -8 0 -8 3 -2 8 11 8 16 52 6 52 -4 0 -4 32 -1 70 5 67
4 71 -18 77 -29 7 -299 10 -338 3z m-309 -972 c84 -29 132 -65 199 -148 15
-18 44 -76 51 -100 1 -3 5 -13 10 -23 4 -10 5 -21 1 -24 -3 -3 -1 -12 5 -19
12 -15 15 -163 5 -209 -4 -16 -8 -36 -8 -42 -1 -7 -6 -13 -11 -13 -5 0 -7 -7
-3 -15 3 -8 1 -15 -4 -15 -6 0 -10 -5 -10 -12 0 -19 -52 -89 -90 -123 -19 -16
-41 -37 -50 -45 -8 -8 -22 -15 -30 -15 -8 1 -18 -3 -21 -7 -10 -15 -117 -48
-133 -42 -9 3 -16 1 -16 -5 0 -6 -6 -9 -12 -6 -17 5 -108 17 -130 16 -10 0
-20 5 -23 10 -4 5 -11 7 -16 4 -5 -4 -9 -2 -9 4 0 5 -14 12 -31 16 -17 4 -33
13 -36 21 -3 8 -9 14 -15 14 -15 0 -88 64 -88 78 0 6 -4 12 -10 12 -5 0 -12
11 -16 25 -3 14 -10 25 -14 25 -8 0 -29 46 -35 76 -2 11 -4 21 -5 24 -1 3 -3
10 -5 15 -1 6 -3 12 -5 15 -5 10 -6 135 -1 145 3 6 6 19 7 30 3 43 14 79 33
116 12 21 19 39 16 39 -13 0 106 122 135 139 39 23 80 43 93 45 7 2 19 6 27 9
47 20 167 12 245 -15z"/>
<path d="M4280 4046 c-16 -12 -22 -86 -8 -86 5 0 6 -5 2 -12 -11 -17 -11 -188
-1 -188 5 0 5 -6 0 -12 -10 -18 -11 -68 0 -68 4 0 5 -6 1 -12 -11 -17 -11
-108 -1 -108 5 0 5 -5 1 -12 -10 -16 -11 -148 -1 -148 5 0 5 -5 1 -12 -10 -16
-11 -148 -1 -148 5 0 5 -5 1 -12 -10 -16 -11 -148 -1 -148 5 0 5 -6 1 -12 -11
-17 -11 -108 -1 -108 5 0 5 -6 0 -12 -10 -18 -11 -68 0 -68 4 0 5 -5 1 -12
-11 -17 -11 -188 -1 -188 5 0 5 -5 1 -12 -11 -17 -11 -188 -1 -188 5 0 5 -6 0
-12 -10 -18 -11 -68 0 -68 4 0 5 -6 1 -12 -11 -17 -11 -108 -1 -108 5 0 5 -5
1 -12 -10 -16 -11 -148 -1 -148 5 0 5 -5 1 -12 -11 -17 -11 -148 0 -148 5 0 4
-6 -2 -12 -5 -7 -7 -20 -3 -29 5 -13 32 -16 194 -16 l187 0 1 26 c0 14 1 99 1
187 1 181 -7 159 91 264 23 25 50 56 60 70 9 13 17 20 17 15 0 -5 7 1 16 13
l16 23 41 -54 c131 -171 172 -223 181 -229 6 -4 8 -8 4 -8 -4 0 3 -11 15 -24
12 -13 27 -30 32 -38 48 -63 144 -185 163 -206 12 -14 22 -28 22 -32 0 -7 470
-10 483 -3 4 2 1 11 -5 18 -7 8 -18 20 -23 27 -13 16 -76 98 -90 116 -5 7 -18
21 -27 30 -10 9 -18 20 -18 24 0 9 -23 39 -56 74 -12 13 -19 25 -17 28 3 3 -2
8 -11 12 -9 3 -16 13 -16 21 0 8 -4 11 -10 8 -5 -3 -10 0 -10 8 0 8 -11 25
-25 38 -13 13 -25 30 -25 37 0 6 -4 12 -8 12 -5 0 -26 25 -47 55 -20 30 -40
55 -44 55 -4 0 -15 15 -26 33 -10 17 -29 42 -42 54 -13 12 -23 26 -23 30 0 9
-37 56 -70 88 -11 12 -20 26 -20 32 0 6 -3 13 -8 15 -19 8 -51 61 -44 73 7 14
133 153 210 233 23 24 42 46 42 49 0 2 12 17 28 32 15 15 59 63 97 105 39 43
89 98 113 123 23 24 42 49 42 54 0 6 5 7 10 4 6 -3 10 1 10 10 0 10 5 13 12 9
7 -4 8 -3 4 5 -4 7 -13 10 -19 8 -7 -2 -20 0 -29 5 -10 5 -18 5 -18 0 0 -10
-92 -8 -109 2 -6 4 -11 3 -11 -1 0 -5 -22 -8 -50 -8 -27 0 -50 4 -50 10 0 5
-4 4 -9 -3 -11 -17 -21 -17 -32 0 -5 7 -9 8 -9 2 0 -14 -30 -14 -30 0 0 6 -4
5 -9 -2 -11 -17 -21 -17 -33 0 -7 10 -11 10 -15 1 -3 -8 -14 -11 -27 -7 -18 4
-33 -8 -82 -62 -32 -36 -70 -79 -84 -94 -43 -47 -137 -154 -160 -180 -59 -68
-129 -147 -167 -187 -24 -25 -43 -47 -43 -49 0 -6 -48 -54 -53 -54 -3 0 -4
279 -4 620 0 341 -2 623 -6 626 -8 8 -307 10 -307 2 0 -4 -10 -4 -23 1 -15 6
-28 5 -37 -3z"/>
<path d="M3226 3452 c-2 -1 -12 -4 -23 -6 -11 -3 -37 -9 -56 -14 -20 -6 -38
-7 -41 -4 -3 3 -6 1 -6 -5 0 -5 -7 -10 -15 -11 -8 -1 -22 -3 -30 -4 -8 -1 -15
-5 -15 -10 0 -4 -3 -7 -7 -6 -8 2 -84 -32 -93 -42 -3 -3 -23 -18 -45 -35 -22
-16 -45 -34 -50 -40 -6 -5 -24 -28 -40 -50 -17 -22 -34 -43 -40 -47 -5 -4 -6
-8 -2 -8 4 0 2 -10 -5 -22 -7 -13 -13 -26 -14 -30 -1 -5 -2 -9 -4 -10 -3 -5
-10 -42 -13 -68 -2 -14 -6 -31 -10 -38 -5 -6 -4 -12 0 -12 10 0 10 -41 0 -57
-4 -7 -3 -14 3 -18 5 -3 10 -19 10 -34 0 -15 5 -32 12 -39 7 -7 8 -12 4 -12
-5 0 -3 -7 4 -15 7 -8 9 -15 6 -15 -8 0 45 -78 72 -105 29 -29 62 -56 62 -49
0 3 14 -4 30 -16 17 -12 30 -19 30 -15 0 3 10 -1 23 -10 13 -8 27 -12 30 -8 4
3 7 1 7 -6 0 -7 4 -10 9 -6 5 3 12 1 16 -5 4 -6 11 -8 16 -5 5 4 15 3 22 -2 6
-4 17 -8 22 -9 6 -1 24 -5 40 -9 17 -4 40 -8 53 -9 12 0 22 -4 22 -8 0 -3 9
-4 20 -1 11 3 20 1 20 -3 0 -5 17 -10 38 -11 20 -2 51 -5 67 -8 17 -3 47 -8
68 -11 20 -4 37 -9 37 -13 0 -4 11 -8 25 -9 14 -1 37 -9 50 -18 14 -9 25 -13
25 -8 0 11 53 -54 56 -69 2 -7 5 -22 8 -34 3 -13 0 -23 -5 -23 -6 0 -8 -4 -4
-9 8 -15 -14 -54 -46 -79 -34 -27 -117 -60 -142 -56 -9 1 -17 -1 -17 -4 0 -8
-85 -7 -143 1 -21 3 -56 15 -77 26 -21 11 -41 17 -44 14 -3 -4 -6 -2 -6 4 0 5
-13 24 -30 43 -16 18 -27 37 -24 41 3 5 0 9 -5 9 -6 0 -11 10 -11 23 0 36 -14
49 -46 42 -16 -4 -40 -8 -54 -10 -14 -2 -25 -4 -25 -5 0 -1 -7 -3 -15 -5 -8
-2 -27 -6 -42 -9 -43 -9 -71 -15 -98 -21 -14 -4 -36 -8 -50 -11 -14 -3 -32 -7
-40 -9 -8 -2 -19 -4 -24 -4 -5 -1 -2 -9 5 -18 11 -13 11 -15 1 -9 -11 6 -11 4
-3 -10 9 -18 21 -48 26 -66 2 -5 4 -10 5 -13 1 -3 3 -9 4 -15 0 -5 9 -19 19
-30 9 -11 17 -24 17 -29 0 -9 74 -87 105 -111 32 -24 80 -54 85 -53 3 1 19 -7
36 -17 16 -11 57 -26 90 -35 57 -16 78 -20 145 -29 17 -3 33 -7 37 -10 3 -3
11 -1 19 5 7 6 13 7 13 3 0 -11 71 -11 87 -1 7 4 15 2 18 -4 4 -5 14 -7 24 -4
9 4 30 8 46 10 53 5 119 16 130 23 5 4 12 7 15 8 52 8 129 40 142 59 4 6 8 6
8 2 0 -22 180 129 180 152 0 6 4 11 9 11 5 0 13 10 17 23 3 12 13 29 20 38 8
8 15 28 16 42 1 15 5 27 9 27 8 0 9 171 1 184 -3 6 -7 20 -8 31 -5 43 -50 121
-97 167 -42 41 -153 105 -196 113 -9 2 -17 4 -18 5 -7 6 -97 24 -105 22 -5 -1
-8 2 -8 6 0 4 -16 9 -36 10 -20 2 -45 7 -55 13 -13 7 -19 6 -19 -1 0 -6 -5 -8
-12 -3 -7 4 -17 8 -23 9 -5 1 -23 5 -40 8 -16 4 -43 9 -60 12 -45 7 -58 10
-87 22 -16 7 -39 16 -52 21 -50 20 -89 98 -75 151 8 30 81 90 127 104 54 16
189 14 221 -3 12 -7 21 -9 21 -6 0 5 34 -21 59 -46 33 -33 47 -55 43 -67 -2
-7 1 -12 8 -12 6 0 9 -4 5 -9 -3 -5 0 -13 6 -16 5 -4 8 -13 5 -20 -7 -19 13
-24 49 -13 17 5 44 11 60 13 17 3 41 8 55 11 14 3 31 6 38 6 6 1 12 4 12 7 0
3 14 7 30 9 17 1 44 3 60 4 17 2 30 7 30 11 0 5 4 6 9 3 5 -3 20 3 32 14 13
11 18 19 11 20 -6 0 -11 3 -11 8 1 4 0 10 -1 15 -1 4 -4 12 -5 17 -1 6 -3 11
-5 13 -1 1 -3 11 -5 22 -2 11 -9 21 -14 23 -6 2 -11 10 -11 18 0 56 -169 205
-270 239 -3 1 -17 7 -33 13 -15 7 -38 14 -50 17 -74 17 -113 23 -119 19 -5 -3
-8 -2 -8 3 0 7 -227 12 -234 5z"/>
<path d="M126 2678 c1 -414 2 -758 3 -764 1 -8 59 -11 191 -11 l190 1 2 754
c3 709 2 755 -14 763 -13 7 -18 6 -18 -2 0 -7 -3 -9 -7 -6 -3 4 -12 2 -19 -4
-8 -6 -29 -11 -49 -12 -19 -1 -35 -3 -35 -6 0 -4 -27 -6 -60 -6 -33 0 -60 3
-60 8 0 4 -13 7 -28 7 -16 0 -32 3 -36 7 -3 4 -12 8 -19 9 -7 1 -19 5 -27 8
-13 6 -15 -81 -14 -746z"/>
</g>
</svg>
