<svg id="Vrstva_1" data-name="Vrstva 1" xmlns="http://www.w3.org/2000/svg" viewBox="0 0 258.18 41.35"><defs><style>.cls-1{fill:#fff;}</style></defs><path class="cls-1" d="M0,5a4.88,4.88,0,1,1,5,4.8H4.85A4.85,4.85,0,0,1,0,5ZM1.65,38V12.25a7.69,7.69,0,0,0,6.4,0V38Z"/><path class="cls-1" d="M33.85,1.75H40.3V38H33.9V34.8a10.92,10.92,0,0,1-8.4,3.71c-7,0-12.45-5.81-12.45-13.36s5.4-13.4,12.45-13.4a10.91,10.91,0,0,1,8.4,3.7Zm0,23.4c0-4.3-3-7.5-7.1-7.5s-7.1,3.2-7.1,7.5a7.11,7.11,0,1,0,14.2.75Q33.86,25.53,33.85,25.15Z"/><path class="cls-1" d="M51.1,29.75c.35,2.45,2,3.65,4.85,3.65s4.75-1.25,4.75-2.9c0-5.1-15.25-.45-15.25-10.7,0-4.6,4.5-8,10.5-8s10.1,3,10.9,7.4l-6.4,1.35c-.35-2.4-2-3.65-4.5-3.65-2.3,0-4.05,1.1-4.05,2.65,0,5.1,15.25.5,15.25,10.9,0,4.65-5,8.11-11.2,8.11-6.35,0-10.45-2.91-11.25-7.41Z"/><path class="cls-1" d="M97.4,38H89.3L81.4,27.85,78,31.6V38h-6.4V1.75H78v21.4l9.65-10.9h8l-9.85,10.8Z"/><path class="cls-1" d="M105.79,10.08a1.29,1.29,0,1,1,1.3,1.28h0a1.28,1.28,0,0,1-1.29-1.27Zm.51,10.33V12.24a1.73,1.73,0,0,0,.81.16,1.94,1.94,0,0,0,.82-.16v8.17Z"/><path class="cls-1" d="M117.45,15.53v4.88h-1.63V15.78a2.23,2.23,0,1,0-4.46,0v4.63h-1.64V12.24h1.64v1.17a3.4,3.4,0,0,1,6.09,2.12Z"/><path class="cls-1" d="M118.17,13.68V12.24h1.75V9.84h1.63v2.4h2.32v1.44h-2.32v3.83c0,1,.41,1.44,1.42,1.44h.9v1.46H123c-2.08,0-3-1-3-3V13.68Z"/><path class="cls-1" d="M133.13,16.87h-6.78a2.77,2.77,0,0,0,5.17.8l1.37.59a4.35,4.35,0,0,1-8.19-1.93,4.23,4.23,0,0,1,8.46.08,3.55,3.55,0,0,1,0,.46Zm-6.75-1.28h5.12a2.58,2.58,0,0,0-2.56-2.1A2.63,2.63,0,0,0,126.38,15.59Z"/><path class="cls-1" d="M141.3,12.24h1.64v7.29a4.34,4.34,0,0,1-8.17,1.93l1.47-.73a2.55,2.55,0,0,0,2.37,1.55,2.66,2.66,0,0,0,2.69-2.65v-.58a3.66,3.66,0,0,1-3,1.36,4.17,4.17,0,0,1,0-8.33,3.69,3.69,0,0,1,3,1.36Zm0,4a2.64,2.64,0,1,0-2.64,2.65,2.6,2.6,0,0,0,2.64-2.56v-.08Z"/><path class="cls-1" d="M146.36,13.41a3,3,0,0,1,3.2-1.25v1.57c-1.79-.49-3.2.47-3.2,2v4.63h-1.63V12.24h1.63Z"/><path class="cls-1" d="M154,12.08a4.25,4.25,0,1,1-4.32,4.25,4.2,4.2,0,0,1,4.15-4.25Zm0,7a2.75,2.75,0,1,0-2.64-2.86v.13A2.64,2.64,0,0,0,154,19.06H154Z"/><path class="cls-1" d="M165.3,12.24h1.64l-3.34,8.17h-1.84l-3.35-8.17h1.76l2.56,6.58Z"/><path class="cls-1" d="M174.3,15.05v5.36h-1.63V19.16a3.42,3.42,0,0,1-2.86,1.41,2.34,2.34,0,0,1-2.61-2,2.28,2.28,0,0,1,0-.26c0-1.7,1.46-2.35,3-2.51l1.61-.18c.6-.05.89-.27.89-.82,0-.81-.69-1.33-1.66-1.33A1.88,1.88,0,0,0,169,15l-1.6-.4c.31-1.53,1.7-2.5,3.59-2.5S174.3,13.08,174.3,15.05Zm-1.63,1.82v-.3a2.13,2.13,0,0,1-.93.27l-1.58.17c-.79.1-1.35.48-1.35,1.16s.53,1.07,1.36,1.07a2.46,2.46,0,0,0,2.45-2.37Z"/><path class="cls-1" d="M183.74,15.53v4.88h-1.63V15.78a2.24,2.24,0,0,0-4.47,0v4.63H176V12.24h1.63v1.17a3.4,3.4,0,0,1,6.1,2.12Z"/><path class="cls-1" d="M192.14,15.05v5.36h-1.63V19.16a3.45,3.45,0,0,1-2.87,1.41,2.34,2.34,0,0,1-2.6-2,2.29,2.29,0,0,1,0-.25c0-1.7,1.46-2.35,3-2.51l1.6-.18c.61-.05.9-.27.9-.82,0-.81-.69-1.33-1.67-1.33a1.88,1.88,0,0,0-2,1.54l-1.6-.4c.3-1.53,1.7-2.5,3.58-2.5S192.14,13.08,192.14,15.05Zm-1.63,1.82v-.3a2.13,2.13,0,0,1-.93.27L188,17c-.79.1-1.35.48-1.35,1.16s.53,1.07,1.36,1.07a2.46,2.46,0,0,0,2.5-2.37Zm.67-8L189.3,11.4h-1.66l1.73-2.56Z"/><path class="cls-1" d="M205.3,8.8h1.63V20.41H205.3V19.18a3.68,3.68,0,0,1-3,1.39,4.25,4.25,0,0,1,0-8.49,3.68,3.68,0,0,1,3,1.38Zm0,7.53a2.7,2.7,0,1,0,0,.07Z"/><path class="cls-1" d="M212.73,12.08a4.25,4.25,0,1,1-4.32,4.25,4.19,4.19,0,0,1,4.13-4.25Zm0,7a2.75,2.75,0,1,0-2.64-2.86v.13a2.64,2.64,0,0,0,2.55,2.71h.09Z"/><path class="cls-1" d="M227.17,16.33a4.08,4.08,0,0,1-3.9,4.24h-.1a3.67,3.67,0,0,1-2.93-1.39v4.43h-1.63V12.24h1.63v1.22a3.66,3.66,0,0,1,2.93-1.38,4.07,4.07,0,0,1,4,4.14Zm-1.69,0a2.69,2.69,0,1,0,0,.09Z"/><path class="cls-1" d="M230.3,13.41a3,3,0,0,1,3.21-1.25v1.57c-1.8-.49-3.21.47-3.21,2v4.63h-1.63V12.24h1.63Z"/><path class="cls-1" d="M240.88,15.05v5.36h-1.64V19.16a3.42,3.42,0,0,1-2.86,1.41,2.34,2.34,0,0,1-2.61-2,2.28,2.28,0,0,1,0-.26c0-1.7,1.46-2.35,3-2.51l1.6-.18c.61-.05.89-.27.89-.82,0-.81-.68-1.33-1.66-1.33a1.85,1.85,0,0,0-2,1.54l-1.61-.4c.31-1.53,1.7-2.5,3.59-2.5S240.88,13.08,240.88,15.05Zm-1.64,1.82v-.3a2.13,2.13,0,0,1-.92.27l-1.59.17c-.78.1-1.34.48-1.34,1.16s.52,1.07,1.36,1.07a2.45,2.45,0,0,0,2.49-2.37Z"/><path class="cls-1" d="M248.3,12.24H250l-3.35,8.17h-1.84l-3.35-8.17h1.76l2.57,6.58Z"/><path class="cls-1" d="M257.24,15.05v5.36h-1.63V19.16a3.42,3.42,0,0,1-2.86,1.41,2.34,2.34,0,0,1-2.61-2,2.28,2.28,0,0,1,0-.26c0-1.7,1.46-2.35,3-2.51l1.61-.18c.6-.05.89-.27.89-.82,0-.81-.69-1.33-1.66-1.33A1.88,1.88,0,0,0,252,15l-1.6-.4c.31-1.53,1.7-2.5,3.59-2.5S257.24,13.08,257.24,15.05Zm-1.63,1.82v-.3a2.13,2.13,0,0,1-.93.27L253.1,17c-.79.1-1.35.48-1.35,1.16s.53,1.07,1.36,1.07A2.46,2.46,0,0,0,255.61,16.87Z"/><path class="cls-1" d="M107.42,35.51a1.6,1.6,0,0,0,1.81,1.33c1.09,0,1.81-.48,1.81-1.12,0-1.94-5-.37-5-3.57,0-1.43,1.36-2.47,3.2-2.47s3.09.92,3.34,2.31l-1.63.34A1.54,1.54,0,0,0,109.24,31c-.9,0-1.57.42-1.57,1.06,0,1.86,5,.32,5,3.62,0,1.44-1.51,2.48-3.46,2.48s-3.2-.91-3.44-2.31Z"/><path class="cls-1" d="M113.21,31.29V29.84H115v-2.4h1.63v2.4h2.32v1.45h-2.32v3.82c0,1,.41,1.44,1.42,1.44h.9V38H118c-2.08,0-3.05-1-3.05-3V31.29Z"/><path class="cls-1" d="M123.44,29H121.6l-1.81-2.57h1.57L122.51,28l1.15-1.53h1.64ZM122,31a3,3,0,0,1,3.26-1.2v1.57c-1.8-.49-3.21.47-3.21,2.05V38h-1.63V29.84h1.63Z"/><path class="cls-1" d="M133.84,34.47h-6.79a2.77,2.77,0,0,0,5.17.8l1.38.59a4.57,4.57,0,1,1,.28-2A4.58,4.58,0,0,1,133.84,34.47Zm-6.76-1.28h5.13a2.6,2.6,0,0,0-2.57-2.1A2.63,2.63,0,0,0,127.08,33.19Z"/><path class="cls-1" d="M142,26.4h1.63V38H142V36.78A3.67,3.67,0,0,1,139,38.17a4.25,4.25,0,0,1,0-8.49A3.66,3.66,0,0,1,142,31.06Zm0,7.53a2.68,2.68,0,1,0,0,.1v-.1Z"/><path class="cls-1" d="M149.44,29.68A4.25,4.25,0,1,1,145.11,34a4.19,4.19,0,0,1,4.1-4.28Zm0,7a2.75,2.75,0,1,0-2.64-2.86V34a2.63,2.63,0,0,0,2.56,2.7h.08Z"/><path class="cls-1" d="M161.61,35.08l1.51.51a4.12,4.12,0,0,1-3.92,2.58,4.25,4.25,0,0,1-.41-8.49h.41a4.13,4.13,0,0,1,3.92,2.57l-1.51.51a2.58,2.58,0,0,0-2.41-1.59,2.75,2.75,0,0,0,0,5.49A2.56,2.56,0,0,0,161.61,35.08ZM160.13,29H158.3l-1.81-2.57h1.58L159.2,28l1.15-1.51h1.58Z"/><path class="cls-1" d="M172.57,34.47h-6.78a2.77,2.77,0,0,0,5.17.8l1.37.59a4.35,4.35,0,0,1-8.19-1.9,4.23,4.23,0,1,1,8.46.08,3.55,3.55,0,0,1,0,.46Zm-6.75-1.28h5.12a2.58,2.58,0,0,0-2.56-2.1A2.63,2.63,0,0,0,165.82,33.19Z"/><path class="cls-1" d="M175.3,35.51a1.61,1.61,0,0,0,1.81,1.33c1.09,0,1.81-.48,1.81-1.12,0-1.94-5-.37-5-3.57,0-1.43,1.36-2.47,3.2-2.47s3.09.92,3.34,2.31l-1.63.34A1.54,1.54,0,0,0,177.12,31c-.9,0-1.57.42-1.57,1.06,0,1.86,5,.32,5,3.62,0,1.44-1.51,2.48-3.46,2.48s-3.2-.91-3.44-2.31Z"/><path class="cls-1" d="M189.74,38h-2.08l-2.82-3.56-1.29,1.4V38h-1.64V26.16h1.64V33.7L187,29.84h2.06L186,33.25Z"/><path class="cls-1" d="M198.08,34.47H191.3a2.77,2.77,0,0,0,5.17.8l1.38.59a4.57,4.57,0,1,1,.28-2,4.58,4.58,0,0,1,0,.64Zm-6.78-1.28h5.13a2.6,2.6,0,0,0-2.57-2.1A2.63,2.63,0,0,0,191.3,33.19Zm5-6.76L194.41,29h-1.66l1.73-2.57Z"/><path class="cls-1" d="M207.37,33.13V38h-1.63V33.38a2.24,2.24,0,0,0-4.47,0V38h-1.63V26.16h1.66V31a3.4,3.4,0,0,1,6.1,2.12Z"/><path class="cls-1" d="M213.13,29.68A4.25,4.25,0,1,1,208.81,34a4.19,4.19,0,0,1,4.1-4.28Zm0,7a2.75,2.75,0,1,0-2.64-2.86V34a2.63,2.63,0,0,0,2.56,2.7h.08Z"/><path class="cls-1" d="M231.52,38h-2.08l-2.82-3.56-1.3,1.4V38h-1.63V26.4h1.61v7.3l3.49-3.86h2.07l-3.16,3.41Z"/><path class="cls-1" d="M234,31a3,3,0,0,1,3.2-1.25v1.57c-1.79-.49-3.2.47-3.2,2.05V38h-1.63V29.84H234Z"/><path class="cls-1" d="M244.57,32.65V38h-1.63V36.76a3.45,3.45,0,0,1-2.87,1.41,2.34,2.34,0,0,1-2.6-2,2.29,2.29,0,0,1,0-.25c0-1.7,1.46-2.35,3-2.51l1.6-.18c.61,0,.9-.27.9-.82,0-.81-.69-1.32-1.67-1.32a1.86,1.86,0,0,0-2,1.53l-1.6-.4c.3-1.54,1.7-2.5,3.58-2.5S244.57,30.68,244.57,32.65Zm-1.63,1.82v-.3a2.13,2.13,0,0,1-.93.27l-1.58.17c-.79.1-1.35.48-1.35,1.16s.53,1.07,1.36,1.07a2.46,2.46,0,0,0,2.5-2.37Z"/><path class="cls-1" d="M245.08,39.88c1.19,0,1.49-.32,1.49-1.47V29.84h1.63v8.57c0,1.74-.72,3.06-3.12,2.93Zm2.31-13.41a1,1,0,1,1-1,1A1,1,0,0,1,247.39,26.47Z"/><path class="cls-1" d="M258.14,34.47h-6.78a2.76,2.76,0,0,0,5.16.8l1.38.59a4.59,4.59,0,1,1,.27-2A3.54,3.54,0,0,1,258.14,34.47Zm-6.75-1.28h5.12a2.58,2.58,0,0,0-2.56-2.1A2.62,2.62,0,0,0,251.39,33.19Z"/></svg>